<svg xmlns="http://www.w3.org/2000/svg" version="1.1" xmlns:xlink="http://www.w3.org/1999/xlink" viewBox="0 0 200 200" width="200" height="200"><metadata><rdf:RDF xmlns:rdf="http://www.w3.org/1999/02/22-rdf-syntax-ns#" xmlns:dc="http://purl.org/dc/elements/1.1/"><rdf:Description><dc:creator>RealFaviconGenerator</dc:creator><dc:source>https://realfavicongenerator.net</dc:source></rdf:Description></rdf:RDF></metadata><rect width="200" height="200" fill="url('#gradient')"></rect><defs><linearGradient id="gradient" gradientTransform="rotate(306 0.5 0.5)"><stop offset="0%" stop-color="#c7a487"></stop><stop offset="100%" stop-color="#e9dba8"></stop></linearGradient></defs><g><g fill="#50363b" transform="matrix(3.5887139887139887,0,0,3.5887139887139887,37.14402670440385,125.51513180538707)" stroke="#785f5f" stroke-width="0.9"><path d="M1.07-14.22L5.58-14.22L8.75-4.33L11.91-14.22L16.43-14.22L16.43 0L12.99 0L12.99-3.32L13.32-10.12L9.88 0L7.62 0L4.17-10.13L4.50-3.32L4.50 0L1.07 0L1.07-14.22ZM18.60-14.22L23.11-14.22L26.28-4.33L29.44-14.22L33.96-14.22L33.96 0L30.52 0L30.52-3.32L30.85-10.12L27.41 0L25.15 0L21.70-10.13L22.03-3.32L22.03 0L18.60 0L18.60-14.22Z"></path></g></g></svg>